<svg version="1.1" id="Layer_1" xmlns="http://www.w3.org/2000/svg" xmlns:xlink="http://www.w3.org/1999/xlink" x="0px" y="0px"
	 viewBox="0 0 792 612" style="enable-background:new 0 0 792 612;" xml:space="preserve">
<style type="text/css">
	.st0{clip-path:url(#SVGID_2_);}
	.st1{fill:#ED2024;}
	.st2{fill:none;stroke:#ED2024;stroke-width:2;stroke-miterlimit:10;}
	.st3{font-family:'PTSans-Bold';}
	.st4{font-size:14px;}
	.st5{fill:#C10230;}
	.st6{font-family:'MuseoSlab-700';}
	.st7{font-size:13.1662px;}
	.st8{font-family:'PTSans-Regular';}
	.st9{font-size:10px;}
	.st10{font-family:'PTSans-Italic';}
	.st11{letter-spacing:-1;}
	.st12{fill:none;stroke:#8C8C8C;stroke-width:0.447;stroke-miterlimit:10;}
	.st13{fill:none;stroke:#8C8C8C;stroke-width:0.447;stroke-miterlimit:10;stroke-dasharray:2.666,1.778;}
	.st14{fill:#FFFFFF;}
</style>
<g>
	<defs>
		<rect id="SVGID_1_" x="13" y="72.4" width="540.6" height="464.7"/>
	</defs>
	<clipPath id="SVGID_2_">
		<use xlink:href="#SVGID_1_"  style="overflow:visible;"/>
	</clipPath>
	<g class="st0">
		<defs>
			<rect id="SVGID_3_" x="-23.2" y="72.4" width="576.8" height="518.2"/>
		</defs>
		<clipPath id="SVGID_4_">
			<use xlink:href="#SVGID_3_"  style="overflow:visible;"/>
		</clipPath>
		<g transform="matrix(1 0 0 1 0 0)" style="clip-path:url(#SVGID_4_);">
			
				<image style="overflow:visible;" width="2597" height="2333" xlink:href="9125973E.jpg"  transform="matrix(0.2221 0 0 0.2221 -23.2113 72.4135)">
			</image>
		</g>
	</g>
</g>
<rect x="353" y="392" class="st1" width="8" height="8"/>
<polyline class="st2" points="546.5,308.5 356.7,308.5 357,398 "/>
<rect x="540" y="304" class="st1" width="8" height="8"/>
<text transform="matrix(1 0 0 1 555.9688 312.5195)"><tspan x="0" y="0" class="st3 st4">E</tspan><tspan x="6.8" y="0" class="st3 st4">X</tspan><tspan x="14.8" y="0" class="st3 st4">HIBI</tspan><tspan x="37.9" y="0" class="st3 st4">T</tspan><tspan x="44.3" y="0" class="st3 st4"> HAL</tspan><tspan x="71.3" y="0" class="st3 st4">L</tspan></text>
<text transform="matrix(1 0 0 1 546.6855 343.5898)"><tspan x="0" y="0" class="st5 st6 st7">SUN</tspan><tspan x="23.5" y="0" class="st5 st6 st7">D</tspan><tspan x="32.1" y="0" class="st5 st6 st7">A</tspan><tspan x="39.4" y="0" class="st5 st6 st7">Y</tspan><tspan x="46.5" y="0" class="st5 st6 st7"> </tspan></text>
<text transform="matrix(1 0 0 1 612.9639 342.5889)"><tspan x="0" y="0" class="st3 st7">W</tspan><tspan x="10.4" y="0" class="st3 st7">e</tspan><tspan x="16.9" y="0" class="st3 st7">l</tspan><tspan x="20" y="0" class="st3 st7">c</tspan><tspan x="25.6" y="0" class="st3 st7">o</tspan><tspan x="32.8" y="0" class="st3 st7">m</tspan><tspan x="43.7" y="0" class="st3 st7">e </tspan><tspan x="53" y="0" class="st3 st7">R</tspan><tspan x="59.4" y="0" class="st3 st7">e</tspan><tspan x="65.8" y="0" class="st3 st7">c</tspan><tspan x="71.4" y="0" class="st3 st7">e</tspan><tspan x="78" y="0" class="st3 st7">p</tspan><tspan x="85.4" y="0" class="st3 st7">t</tspan><tspan x="89.7" y="0" class="st3 st7">i</tspan><tspan x="92.7" y="0" class="st3 st7">o</tspan><tspan x="99.9" y="0" class="st3 st7">n</tspan></text>
<text transform="matrix(1 0 0 1 541.7881 370.5938)"><tspan x="0" y="0" class="st5 st6 st7">M</tspan><tspan x="10.4" y="0" class="st5 st6 st7">O</tspan><tspan x="19.4" y="0" class="st5 st6 st7">N</tspan><tspan x="28" y="0" class="st5 st6 st7">D</tspan><tspan x="36.5" y="0" class="st5 st6 st7">A</tspan><tspan x="43.9" y="0" class="st5 st6 st7">Y</tspan><tspan x="50.9" y="0" class="st5 st6 st7"> </tspan></text>
<text transform="matrix(1 0 0 1 612.9639 371.5947)"><tspan x="0" y="0" class="st3 st7">N</tspan><tspan x="8.6" y="0" class="st3 st7">e</tspan><tspan x="15.1" y="0" class="st3 st7">w</tspan><tspan x="24.6" y="0" class="st3 st7">c</tspan><tspan x="30.2" y="0" class="st3 st7">om</tspan><tspan x="48.3" y="0" class="st3 st7">e</tspan><tspan x="54.8" y="0" class="st3 st7">rs</tspan><tspan x="64.2" y="0" class="st3 st7"> </tspan><tspan x="66.8" y="0" class="st3 st7">C</tspan><tspan x="73.9" y="0" class="st3 st7">o</tspan><tspan x="81.1" y="0" class="st3 st7">n</tspan><tspan x="88.3" y="0" class="st3 st7">n</tspan><tspan x="95.6" y="0" class="st3 st7">e</tspan><tspan x="102" y="0" class="st3 st7">ct</tspan><tspan x="112.2" y="0" class="st3 st7">i</tspan><tspan x="115.2" y="0" class="st3 st7">o</tspan><tspan x="122.4" y="0" class="st3 st7">n</tspan></text>
<text transform="matrix(1 0 0 1 612.9688 383.5898)" class="st8 st9">(</text>
<text transform="matrix(1 0 0 1 615.7188 383.5898)"><tspan x="0" y="0" class="st10 st9">B</tspan><tspan x="5.4" y="0" class="st10 st9">y</tspan><tspan x="9.8" y="0" class="st10 st9"> invit</tspan><tspan x="30" y="0" class="st10 st9">a</tspan><tspan x="34.8" y="0" class="st10 st9">tion</tspan><tspan x="51.3" y="0" class="st10 st9"> </tspan><tspan x="53.4" y="0" class="st10 st9">onl</tspan><tspan x="66.6" y="0" class="st10 st9">y</tspan></text>
<text transform="matrix(1 0 0 1 685.9189 383.5898)" class="st8 st9">)</text>
<text transform="matrix(1 0 0 1 612.9688 401.5898)" class="st3 st7">C</text>
<text transform="matrix(1 0 0 1 619.7881 401.5898)"><tspan x="0" y="0" class="st3 st7">o</tspan><tspan x="7" y="0" class="st3 st7">ffe</tspan><tspan x="21" y="0" class="st3 st7">e Brea</tspan><tspan x="54.5" y="0" class="st3 st7">k</tspan></text>
<text transform="matrix(1 0 0 1 612.9688 416.5859)"><tspan x="0" y="0" class="st3 st7">L</tspan><tspan x="6.2" y="0" class="st3 st7">u</tspan><tspan x="13.4" y="0" class="st3 st7">nc</tspan><tspan x="26.5" y="0" class="st3 st7">h</tspan></text>
<text transform="matrix(1 0 0 1 612.9688 431.582)"><tspan x="0" y="0" class="st3 st7">D</tspan><tspan x="8.7" y="0" class="st3 st7">e</tspan><tspan x="15.2" y="0" class="st3 st7">ss</tspan><tspan x="25.6" y="0" class="st3 st7">e</tspan><tspan x="32.1" y="0" class="st3 st7">r</tspan><tspan x="36.7" y="0" class="st3 st7">t</tspan><tspan x="41" y="0" class="st3 st7"> Br</tspan><tspan x="55.1" y="0" class="st3 st7">e</tspan><tspan x="61.6" y="0" class="st3 st7">a</tspan><tspan x="67.9" y="0" class="st3 st7">k</tspan></text>
<text transform="matrix(1 0 0 1 689.7539 431.582)" class="st3 st7"> </text>
<text transform="matrix(1 0 0 1 540.5801 454.584)"><tspan x="0" y="0" class="st5 st6 st7">TUES</tspan><tspan x="27.8" y="0" class="st5 st6 st7">D</tspan><tspan x="36.4" y="0" class="st5 st6 st7">A</tspan><tspan x="43.7" y="0" class="st5 st6 st7">Y</tspan><tspan x="50.8" y="0" class="st5 st6 st7"> </tspan></text>
<text transform="matrix(1 0 0 1 612.9688 454.584)" class="st3 st7">C</text>
<text transform="matrix(1 0 0 1 619.7881 454.584)"><tspan x="0" y="0" class="st3 st7">o</tspan><tspan x="7" y="0" class="st3 st7">ffe</tspan><tspan x="21" y="0" class="st3 st7">e Brea</tspan><tspan x="54.5" y="0" class="st3 st7">k</tspan></text>
<text transform="matrix(1 0 0 1 612.9688 472.582)" class="st3 st7">D</text>
<text transform="matrix(1 0 0 1 621.4209 472.582)"><tspan x="0" y="0" class="st3 st7">e</tspan><tspan x="6.5" y="0" class="st3 st7">s</tspan><tspan x="11.7" y="0" class="st3 st7">s</tspan><tspan x="16.9" y="0" class="st3 st7">e</tspan><tspan x="23.4" y="0" class="st3 st7">r</tspan><tspan x="28" y="0" class="st3 st7">t Brea</tspan><tspan x="59.2" y="0" class="st3 st7">k</tspan><tspan x="65" y="0" class="st3 st7"> </tspan><tspan x="67.5" y="0" class="st3 st7">wi</tspan><tspan x="80.2" y="0" class="st3 st7">t</tspan><tspan x="84.5" y="0" class="st3 st7">h</tspan></text>
<text transform="matrix(1 0 0 1 612.9688 485.5771)"><tspan x="0" y="0" class="st3 st7">A</tspan><tspan x="8" y="0" class="st3 st7 st11">L</tspan><tspan x="12.5" y="0" class="st3 st7">A</tspan><tspan x="20" y="0" class="st3 st7"> </tspan><tspan x="22.2" y="0" class="st3 st7">A</tspan><tspan x="30.2" y="0" class="st3 st7">l</tspan><tspan x="33.2" y="0" class="st3 st7">i</tspan><tspan x="36.2" y="0" class="st3 st7">gn</tspan><tspan x="50.8" y="0" class="st3 st7">e</tspan><tspan x="57.3" y="0" class="st3 st7">d</tspan><tspan x="64.7" y="0" class="st3 st7">:</tspan><tspan x="67.4" y="0" class="st3 st7"> </tspan><tspan x="69.9" y="0" class="st3 st7">C</tspan><tspan x="77" y="0" class="st3 st7">ont</tspan><tspan x="95.8" y="0" class="st3 st7">i</tspan><tspan x="98.8" y="0" class="st3 st7">n</tspan><tspan x="106.1" y="0" class="st3 st7">u</tspan><tspan x="113.2" y="0" class="st3 st7">e</tspan><tspan x="119.8" y="0" class="st3 st7"> </tspan></text>
<text transform="matrix(1 0 0 1 612.9688 498.5723)"><tspan x="0" y="0" class="st3 st7">t</tspan><tspan x="4.3" y="0" class="st3 st7">h</tspan><tspan x="11.5" y="0" class="st3 st7">e</tspan><tspan x="18.1" y="0" class="st3 st7"> </tspan><tspan x="20.7" y="0" class="st3 st7">C</tspan><tspan x="27.8" y="0" class="st3 st7">on</tspan><tspan x="42.2" y="0" class="st3 st7">v</tspan><tspan x="48.4" y="0" class="st3 st7">er</tspan><tspan x="59.2" y="0" class="st3 st7">s</tspan><tspan x="64.3" y="0" class="st3 st7">at</tspan><tspan x="74.9" y="0" class="st3 st7">i</tspan><tspan x="77.9" y="0" class="st3 st7">o</tspan><tspan x="85.1" y="0" class="st3 st7">n</tspan><tspan x="92.4" y="0" class="st3 st7"> </tspan><tspan x="94.9" y="0" class="st3 st7">wi</tspan><tspan x="107.6" y="0" class="st3 st7">th</tspan><tspan x="119.1" y="0" class="st3 st7"> </tspan></text>
<text transform="matrix(1 0 0 1 612.9688 511.5674)"><tspan x="0" y="0" class="st3 st7">t</tspan><tspan x="4.3" y="0" class="st3 st7">h</tspan><tspan x="11.5" y="0" class="st3 st7">e Board </tspan><tspan x="55.7" y="0" class="st3 st7">o</tspan><tspan x="62.8" y="0" class="st3 st7">f D</tspan><tspan x="78" y="0" class="st3 st7">i</tspan><tspan x="81" y="0" class="st3 st7">r</tspan><tspan x="85.3" y="0" class="st3 st7">e</tspan><tspan x="91.7" y="0" class="st3 st7">c</tspan><tspan x="97.6" y="0" class="st3 st7">t</tspan><tspan x="101.8" y="0" class="st3 st7">or</tspan><tspan x="113.2" y="0" class="st3 st7">s</tspan></text>
<text transform="matrix(1 0 0 1 612.9688 529.5654)"><tspan x="0" y="0" class="st3 st7">N</tspan><tspan x="8.6" y="0" class="st3 st7">e</tspan><tspan x="15.1" y="0" class="st3 st7">t</tspan><tspan x="19.2" y="0" class="st3 st7">w</tspan><tspan x="28.7" y="0" class="st3 st7">ork</tspan><tspan x="46.3" y="0" class="st3 st7">i</tspan><tspan x="49.3" y="0" class="st3 st7">n</tspan><tspan x="56.5" y="0" class="st3 st7">g</tspan><tspan x="63.8" y="0" class="st3 st7"> </tspan><tspan x="66.6" y="0" class="st3 st7">R</tspan><tspan x="73" y="0" class="st3 st7">e</tspan><tspan x="79.4" y="0" class="st3 st7">c</tspan><tspan x="85.1" y="0" class="st3 st7">e</tspan><tspan x="91.6" y="0" class="st3 st7">p</tspan><tspan x="99" y="0" class="st3 st7">t</tspan><tspan x="103.3" y="0" class="st3 st7">i</tspan><tspan x="106.4" y="0" class="st3 st7">on</tspan><tspan x="120.8" y="0" class="st3 st7"> </tspan></text>
<text transform="matrix(1 0 0 1 517.0791 556.5693)"><tspan x="0" y="0" class="st5 st6 st7">W</tspan><tspan x="11.1" y="0" class="st5 st6 st7">E</tspan><tspan x="17.5" y="0" class="st5 st6 st7">D</tspan><tspan x="26.1" y="0" class="st5 st6 st7">NES</tspan><tspan x="47.6" y="0" class="st5 st6 st7">D</tspan><tspan x="56.2" y="0" class="st5 st6 st7">A</tspan><tspan x="63.5" y="0" class="st5 st6 st7">Y</tspan><tspan x="70.6" y="0" class="st5 st6 st7"> </tspan></text>
<text transform="matrix(1 0 0 1 612.9688 557.5693)" class="st3 st7">C</text>
<text transform="matrix(1 0 0 1 619.7881 557.5693)"><tspan x="0" y="0" class="st3 st7">o</tspan><tspan x="7" y="0" class="st3 st7">ffe</tspan><tspan x="21" y="0" class="st3 st7">e </tspan><tspan x="30.3" y="0" class="st3 st7">B</tspan></text>
<text transform="matrix(1 0 0 1 659.0498 557.5693)"><tspan x="0" y="0" class="st3 st7">rea</tspan><tspan x="17.1" y="0" class="st3 st7">k</tspan></text>
<text transform="matrix(1 0 0 1 612.9678 572.5664)"><tspan x="0" y="0" class="st3 st7">L</tspan><tspan x="6.2" y="0" class="st3 st7">u</tspan><tspan x="13.4" y="0" class="st3 st7">nc</tspan><tspan x="26.5" y="0" class="st3 st7">h</tspan></text>
<line class="st12" x1="576" y1="353.5" x2="577.3" y2="353.5"/>
<line class="st13" x1="579.1" y1="353.5" x2="733.8" y2="353.5"/>
<line class="st12" x1="734.7" y1="353.5" x2="736" y2="353.5"/>
<line class="st12" x1="576" y1="439.5" x2="577.3" y2="439.5"/>
<line class="st13" x1="579.1" y1="439.5" x2="733.8" y2="439.5"/>
<line class="st12" x1="734.7" y1="439.5" x2="736" y2="439.5"/>
<line class="st12" x1="576" y1="539.5" x2="577.3" y2="539.5"/>
<line class="st13" x1="579.1" y1="539.5" x2="733.8" y2="539.5"/>
<line class="st12" x1="734.7" y1="539.5" x2="736" y2="539.5"/>
<rect x="17" y="84" class="st14" width="522" height="21"/>
<rect x="141" y="100" class="st14" width="294" height="25"/>
<g>
	<defs>
		<rect id="SVGID_5_" x="177" y="86" width="101.5" height="29.5"/>
	</defs>
	<clipPath id="SVGID_6_">
		<use xlink:href="#SVGID_5_"  style="overflow:visible;"/>
	</clipPath>
	<g style="clip-path:url(#SVGID_6_);">
		<image style="overflow:visible;" width="423" height="123" xlink:href="91259742.jpg"  transform="matrix(0.24 0 0 0.24 177 86)">
		</image>
	</g>
</g>
</svg>
