<svg version="1.1" id="Layer_1" xmlns="http://www.w3.org/2000/svg" xmlns:xlink="http://www.w3.org/1999/xlink" x="0px" y="0px"
	 viewBox="0 0 792 612" style="enable-background:new 0 0 792 612;" xml:space="preserve">
<style type="text/css">
	.st0{clip-path:url(#SVGID_2_);}
	.st1{fill:#ED2024;}
	.st2{fill:none;stroke:#ED2024;stroke-width:2;stroke-miterlimit:10;}
	.st3{fill:#C10230;}
	.st4{font-family:'MuseoSlab-700';}
	.st5{font-size:13.1662px;}
	.st6{font-family:'PTSans-Bold';}
	.st7{font-family:'PTSans-BoldItalic';}
	.st8{font-size:14.8598px;}
	.st9{fill:#FFFFFF;}
	.st10{fill:none;stroke:#8C8C8C;stroke-width:0.447;stroke-miterlimit:10;}
	.st11{fill:none;stroke:#8C8C8C;stroke-width:0.447;stroke-miterlimit:10;stroke-dasharray:2.666,1.778;}
</style>
<g>
	<defs>
		<rect id="SVGID_1_" width="783" height="573"/>
	</defs>
	<clipPath id="SVGID_2_">
		<use xlink:href="#SVGID_1_"  style="overflow:visible;"/>
	</clipPath>
	<g class="st0">
		<defs>
			<rect id="SVGID_3_" x="-9" y="-39" width="792" height="612"/>
		</defs>
		<clipPath id="SVGID_4_">
			<use xlink:href="#SVGID_3_"  style="overflow:visible;"/>
		</clipPath>
		<g style="clip-path:url(#SVGID_4_);">
			
				<image style="overflow:visible;" width="3300" height="2550" xlink:href="640FF8FA.jpg"  transform="matrix(0.24 0 0 0.24 -9 -39)">
			</image>
		</g>
	</g>
</g>
<rect x="187" y="256" class="st1" width="9" height="9"/>
<polyline class="st2" points="153.5,416.7 191.5,416.7 191.5,261 "/>
<rect x="147" y="412" class="st1" width="8" height="8"/>
<text transform="matrix(1 0 0 1 75.5762 451.5898)"><tspan x="0" y="0" class="st3 st4 st5">M</tspan><tspan x="10.4" y="0" class="st3 st4 st5">O</tspan><tspan x="19.4" y="0" class="st3 st4 st5">N</tspan><tspan x="28" y="0" class="st3 st4 st5">D</tspan><tspan x="36.5" y="0" class="st3 st4 st5">A</tspan><tspan x="43.9" y="0" class="st3 st4 st5">Y</tspan><tspan x="50.9" y="0" class="st3 st4 st5"> </tspan></text>
<text transform="matrix(1 0 0 1 147.9639 450.5889)"><tspan x="0" y="0" class="st6 st5">K</tspan><tspan x="7.1" y="0" class="st6 st5">i</tspan><tspan x="10.1" y="0" class="st6 st5">c</tspan><tspan x="15.9" y="0" class="st6 st5">k</tspan><tspan x="21.6" y="0" class="st6 st5">-</tspan><tspan x="25.6" y="0" class="st6 st5">o</tspan><tspan x="32.6" y="0" class="st6 st5">ff</tspan><tspan x="40.2" y="0" class="st6 st5"> Br</tspan><tspan x="54.3" y="0" class="st6 st5">e</tspan><tspan x="60.8" y="0" class="st6 st5">ak</tspan><tspan x="73.2" y="0" class="st6 st5">f</tspan><tspan x="77" y="0" class="st6 st5">a</tspan><tspan x="83.3" y="0" class="st6 st5">st</tspan><tspan x="92.7" y="0" class="st6 st5"> </tspan><tspan x="95.3" y="0" class="st6 st5">w</tspan><tspan x="104.9" y="0" class="st6 st5">i</tspan><tspan x="107.9" y="0" class="st6 st5">t</tspan><tspan x="112.2" y="0" class="st6 st5">h</tspan><tspan x="119.5" y="0" class="st6 st5"> </tspan><tspan x="122" y="0" class="st6 st5">CLM </tspan><tspan x="149.1" y="0" class="st6 st5">R</tspan><tspan x="155.5" y="0" class="st6 st5">e</tspan><tspan x="161.9" y="0" class="st6 st5">c</tspan><tspan x="167.5" y="0" class="st6 st5">og</tspan><tspan x="182" y="0" class="st6 st5">n</tspan><tspan x="189.3" y="0" class="st6 st5">i</tspan><tspan x="192.3" y="0" class="st6 st5">ti</tspan><tspan x="199.6" y="0" class="st6 st5">o</tspan><tspan x="206.8" y="0" class="st6 st5">n</tspan></text>
<text transform="matrix(1 0 0 1 147.9639 464.585)"><tspan x="0" y="0" class="st6 st5">O</tspan><tspan x="9" y="0" class="st6 st5">pe</tspan><tspan x="23" y="0" class="st6 st5">n</tspan><tspan x="30.2" y="0" class="st6 st5">in</tspan><tspan x="40.5" y="0" class="st6 st5">g</tspan><tspan x="47.8" y="0" class="st6 st5"> </tspan><tspan x="50.5" y="0" class="st6 st5">K</tspan><tspan x="57" y="0" class="st6 st5">e</tspan><tspan x="63.3" y="0" class="st6 st5">y</tspan><tspan x="69.5" y="0" class="st6 st5">no</tspan><tspan x="83.9" y="0" class="st6 st5">t</tspan><tspan x="88.1" y="0" class="st6 st5">e</tspan></text>
<text transform="matrix(1 0 0 1 74.3647 490.6406)"><tspan x="0" y="0" class="st3 st4 st5">T</tspan><tspan x="6.5" y="0" class="st3 st4 st5">UES</tspan><tspan x="27.8" y="0" class="st3 st4 st5">D</tspan><tspan x="36.4" y="0" class="st3 st4 st5">A</tspan><tspan x="43.7" y="0" class="st3 st4 st5">Y</tspan><tspan x="50.8" y="0" class="st3 st4 st5"> </tspan></text>
<text transform="matrix(1 0 0 1 147.9639 490.6406)"><tspan x="0" y="0" class="st6 st5">Brea</tspan><tspan x="24.2" y="0" class="st6 st5">kf</tspan><tspan x="34.1" y="0" class="st6 st5">a</tspan><tspan x="40.4" y="0" class="st6 st5">s</tspan><tspan x="45.5" y="0" class="st6 st5">t</tspan></text>
<text transform="matrix(1 0 0 1 147.9639 504.6367)"><tspan x="0" y="0" class="st6 st5">Gen</tspan><tspan x="22.3" y="0" class="st6 st5">e</tspan><tspan x="28.8" y="0" class="st6 st5">ral Se</tspan><tspan x="58.1" y="0" class="st6 st5">ssi</tspan><tspan x="71.4" y="0" class="st6 st5">o</tspan><tspan x="78.6" y="0" class="st6 st5">n</tspan></text>
<text transform="matrix(1 0 0 1 147.9639 518.6318)"><tspan x="0" y="0" class="st6 st5">As</tspan><tspan x="13.1" y="0" class="st6 st5">socia</tspan><tspan x="40.6" y="0" class="st6 st5">ti</tspan><tspan x="48" y="0" class="st6 st5">on Lu</tspan><tspan x="78.5" y="0" class="st6 st5">n</tspan><tspan x="85.7" y="0" class="st6 st5">c</tspan><tspan x="91.6" y="0" class="st6 st5">h</tspan></text>
<text transform="matrix(1 0 0 1 49.8628 544.583)"><tspan x="0" y="0" class="st3 st4 st5">W</tspan><tspan x="11.1" y="0" class="st3 st4 st5">E</tspan><tspan x="17.5" y="0" class="st3 st4 st5">D</tspan><tspan x="26.1" y="0" class="st3 st4 st5">N</tspan><tspan x="34.8" y="0" class="st3 st4 st5">E</tspan><tspan x="41.2" y="0" class="st3 st4 st5">S</tspan><tspan x="47.6" y="0" class="st3 st4 st5">D</tspan><tspan x="56.2" y="0" class="st3 st4 st5">A</tspan><tspan x="63.5" y="0" class="st3 st4 st5">Y</tspan><tspan x="70.6" y="0" class="st3 st4 st5"> </tspan></text>
<text transform="matrix(1 0 0 1 146.9634 544.583)"><tspan x="0" y="0" class="st6 st5">Br</tspan><tspan x="11.3" y="0" class="st6 st5">e</tspan><tspan x="17.8" y="0" class="st6 st5">z</tspan><tspan x="23.4" y="0" class="st6 st5">ina Me</tspan><tspan x="59.8" y="0" class="st6 st5">m</tspan><tspan x="70.7" y="0" class="st6 st5">o</tspan><tspan x="77.9" y="0" class="st6 st5">r</tspan><tspan x="82.1" y="0" class="st6 st5">ial </tspan><tspan x="97.2" y="0" class="st6 st5">Sessi</tspan><tspan x="123.5" y="0" class="st6 st5">o</tspan><tspan x="130.6" y="0" class="st6 st5">n</tspan></text>
<rect x="454" y="393" class="st1" width="8" height="8"/>
<polyline class="st2" points="420.5,472.7 458.5,472.7 458.5,397.7 "/>
<text transform="matrix(1 0 0 1 366.9683 489.5898)"><tspan x="0" y="0" class="st6 st5">S</tspan><tspan x="6.4" y="0" class="st6 st5">il</tspan><tspan x="12.5" y="0" class="st6 st5">en</tspan><tspan x="26.3" y="0" class="st6 st5">t</tspan><tspan x="30.6" y="0" class="st6 st5"> </tspan><tspan x="32.8" y="0" class="st6 st5">A</tspan><tspan x="40.8" y="0" class="st6 st5">u</tspan><tspan x="48" y="0" class="st6 st5">c</tspan><tspan x="53.8" y="0" class="st6 st5">t</tspan><tspan x="58.1" y="0" class="st6 st5">i</tspan><tspan x="61.1" y="0" class="st6 st5">o</tspan><tspan x="68.3" y="0" class="st6 st5">n</tspan></text>
<polyline class="st2" points="504,491.7 466,491.7 466,378.5 "/>
<rect x="462" y="377" class="st1" width="8" height="8"/>
<rect x="415" y="468" class="st1" width="8" height="8"/>
<rect x="500" y="487" class="st1" width="8" height="8"/>
<rect x="512" y="256" class="st1" width="8" height="8"/>
<polyline class="st2" points="582,472 516,472 516,258 "/>
<rect x="578" y="468" class="st1" width="8" height="8"/>
<text transform="matrix(1 0 0 1 554.9688 491.5898)"><tspan x="0" y="0" class="st7 st5">BO</tspan><tspan x="16.1" y="0" class="st7 st5">L</tspan><tspan x="22.2" y="0" class="st7 st5">D</tspan><tspan x="30.8" y="0" class="st7 st5"> </tspan><tspan x="33.5" y="0" class="st7 st5">Bi</tspan><tspan x="43.6" y="0" class="st7 st5">te</tspan><tspan x="54.4" y="0" class="st7 st5">s</tspan></text>
<polyline class="st2" points="696,425 630,425 630,271.4 "/>
<rect x="626" y="270" class="st1" width="8" height="8"/>
<rect x="690" y="420" class="st1" width="8" height="8"/>
<text transform="matrix(1 0 0 1 608.9688 443.5898)"><tspan x="0" y="0" class="st6 st5">A</tspan><tspan x="8" y="0" class="st6 st5">s</tspan><tspan x="13.2" y="0" class="st6 st5">s</tspan><tspan x="18.3" y="0" class="st6 st5">oc</tspan><tspan x="31.3" y="0" class="st6 st5">i</tspan><tspan x="34.3" y="0" class="st6 st5">at</tspan><tspan x="44.9" y="0" class="st6 st5">i</tspan><tspan x="48" y="0" class="st6 st5">on</tspan><tspan x="62.4" y="0" class="st6 st5"> </tspan><tspan x="64.6" y="0" class="st6 st5">A</tspan><tspan x="72.1" y="0" class="st6 st5">w</tspan><tspan x="81.7" y="0" class="st6 st5">ard</tspan><tspan x="99.6" y="0" class="st6 st5">s</tspan><tspan x="104.8" y="0" class="st6 st5"> </tspan><tspan x="107.4" y="0" class="st6 st5">G</tspan><tspan x="115.8" y="0" class="st6 st5">al</tspan><tspan x="125.1" y="0" class="st6 st5">a</tspan></text>
<text transform="matrix(1 0 0 1 472.9746 513.5947)"><tspan x="0" y="0" class="st6 st5">R</tspan><tspan x="6.4" y="0" class="st6 st5">e</tspan><tspan x="12.9" y="0" class="st6 st5">gis</tspan><tspan x="28.3" y="0" class="st6 st5">t</tspan><tspan x="32.6" y="0" class="st6 st5">r</tspan><tspan x="36.9" y="0" class="st6 st5">at</tspan><tspan x="47.5" y="0" class="st6 st5">i</tspan><tspan x="50.5" y="0" class="st6 st5">o</tspan><tspan x="57.7" y="0" class="st6 st5">n</tspan></text>
<text transform="matrix(1 0 0 1 472.9746 527.5898)"><tspan x="0" y="0" class="st6 st5">W</tspan><tspan x="10.4" y="0" class="st6 st5">e</tspan><tspan x="16.9" y="0" class="st6 st5">dn</tspan><tspan x="31.5" y="0" class="st6 st5">es</tspan><tspan x="43.2" y="0" class="st6 st5">da</tspan><tspan x="56.9" y="0" class="st6 st5">y</tspan><tspan x="62.6" y="0" class="st6 st5"> Br</tspan><tspan x="76.6" y="0" class="st6 st5">e</tspan><tspan x="83.2" y="0" class="st6 st5">ak</tspan><tspan x="95.6" y="0" class="st6 st5">f</tspan><tspan x="99.4" y="0" class="st6 st5">as</tspan><tspan x="110.8" y="0" class="st6 st5">t</tspan></text>
<polygon class="st3" points="363.2,331.9 358.7,329.5 354.2,331.8 355.1,326.8 351.6,323.2 356.6,322.5 358.9,318 361.1,322.6 
	366.1,323.4 362.4,326.9 "/>
<polygon class="st3" points="308.2,320.9 303.7,318.5 299.2,320.8 300.1,315.8 296.6,312.2 301.6,311.5 303.9,307 306.1,311.6 
	311.1,312.4 307.4,315.9 "/>
<polygon class="st3" points="307.2,245.9 302.7,243.5 298.2,245.8 299.1,240.8 295.6,237.2 300.6,236.5 302.9,232 305.1,236.6 
	310.1,237.4 306.4,240.9 "/>
<polygon class="st3" points="361.2,257.9 356.7,255.5 352.2,257.8 353.1,252.8 349.6,249.2 354.6,248.5 356.9,244 359.1,248.6 
	364.1,249.4 360.4,252.9 "/>
<polygon class="st3" points="580.2,330.9 575.7,328.5 571.2,330.8 572.1,325.8 568.6,322.2 573.6,321.5 575.9,317 578.1,321.6 
	583.1,322.4 579.4,325.9 "/>
<polygon class="st3" points="580.2,255.9 575.7,253.5 571.2,255.8 572.1,250.8 568.6,247.2 573.6,246.5 575.9,242 578.1,246.6 
	583.1,247.4 579.4,250.9 "/>
<polygon class="st3" points="609.2,241.9 604.7,239.5 600.2,241.8 601.1,236.8 597.6,233.2 602.6,232.5 604.9,228 607.1,232.6 
	612.1,233.4 608.4,236.9 "/>
<polygon class="st3" points="608.2,313.9 603.7,311.5 599.2,313.8 600.1,308.8 596.6,305.2 601.6,304.5 603.9,300 606.1,304.6 
	611.1,305.4 607.4,308.9 "/>
<polygon class="st3" points="672.2,241.9 667.7,239.5 663.2,241.8 664.1,236.8 660.6,233.2 665.6,232.5 667.9,228 670.1,232.6 
	675.1,233.4 671.4,236.9 "/>
<polygon class="st3" points="671.2,315.9 666.7,313.5 662.2,315.8 663.1,310.8 659.6,307.2 664.6,306.5 666.9,302 669.1,306.6 
	674.1,307.4 670.4,310.9 "/>
<polygon class="st3" points="635.7,540.9 630.7,538.2 625.5,540.7 626.6,535.1 622.6,531 628.3,530.3 630.9,525.2 633.3,530.4 
	639,531.3 634.8,535.3 "/>
<text transform="matrix(1 0 0 1 645.5908 538.2979)"><tspan x="0" y="0" class="st6 st8">Se</tspan><tspan x="14.7" y="0" class="st6 st8">ss</tspan><tspan x="26.3" y="0" class="st6 st8">io</tspan><tspan x="37.8" y="0" class="st6 st8">n</tspan><tspan x="46" y="0" class="st6 st8"> </tspan><tspan x="49.1" y="0" class="st6 st8">R</tspan><tspan x="56.3" y="0" class="st6 st8">oo</tspan><tspan x="72.5" y="0" class="st6 st8">m</tspan><tspan x="84.8" y="0" class="st6 st8">s</tspan></text>
<rect x="74" y="65" class="st9" width="654" height="23"/>
<g>
	<defs>
		<rect id="SVGID_5_" x="291" y="62" width="101.5" height="29.5"/>
	</defs>
	<clipPath id="SVGID_6_">
		<use xlink:href="#SVGID_5_"  style="overflow:visible;"/>
	</clipPath>
	<g style="clip-path:url(#SVGID_6_);">
		<image style="overflow:visible;" width="423" height="123" xlink:href="640FF8FE.jpg"  transform="matrix(0.24 0 0 0.24 291 62)">
		</image>
	</g>
</g>
<line class="st10" x1="115" y1="474" x2="116.3" y2="474"/>
<line class="st11" x1="118.1" y1="474" x2="272.8" y2="474"/>
<line class="st10" x1="273.7" y1="474" x2="275" y2="474"/>
<line class="st10" x1="115" y1="527" x2="116.3" y2="527"/>
<line class="st11" x1="118.1" y1="527" x2="272.8" y2="527"/>
<line class="st10" x1="273.7" y1="527" x2="275" y2="527"/>
</svg>
